# xmcd
#
# Track frame offsets:
#	150
#	14639
#	30340
#	44035
#	56074
#	70699
#	82758
#	94017
#	105363
#	118606
#	133102
#	146461
#
# Disc length: 2158 seconds
#
# Revision: 1
# Processed by: cddbd v1.5.2PL0 Copyright (c) Steve Scherf et al.
# Submitted via: EasyCDDAExtractor 8.2.3.1
#
DISCID=9a086c0c
DTITLE=Frank Jansen - You're A Phone Call That I Need To Make
DYEAR=1995
DGENRE=Country
TTITLE0=You're A Phone Call That I Need To Amke
TTITLE1=You Sure Laid A Hit On Me
TTITLE2=I Wish I'd Never Rorrowed Annybody's Angel
TTITLE3=I Wish I Could Take Back Her Tears
TTITLE4=The Heart That You Own
TTITLE5=The Sound Of Closing Doors
TTITLE6=Amarillo By Morning
TTITLE7=Someone New To Take Your Place
TTITLE8=Long Lonesome Moan
TTITLE9=Leave Well Enough Alone
TTITLE10=The Blame Lies With Me
TTITLE11=Drivin' Your Memory Away
EXTD=
EXTT0=
EXTT1=
EXTT2=
EXTT3=
EXTT4=
EXTT5=
EXTT6=
EXTT7=
EXTT8=
EXTT9=
EXTT10=
EXTT11=
PLAYORDER=
